ffmpeg started on 2026-01-13 at 09:38:55
Report written to "D:\Convert\FFMetrics\reports\psnr_report-6.txt"
Log level: 32
Command line:
ffmpeg -hide_banner -nostdin -r 24000/1001 -i "F:\\Convert\\files\\[DC] Make Heroine ga Oosugiru - 07_Telegram_HEVC(103).mkv" -r 24000/1001 -i "F:\\Convert\\files\\[DC] Make Heroine ga Oosugiru - 07_Telegram.mp4" -lavfi "[0:v]settb=AVTB,setpts=PTS-STARTPTS,format=pix_fmts=yuv420p10le,fps=24000/1001,scale=1920:1080:flags=lanczos:param0=3:out_range=limited:out_color_matrix=bt709:out_chroma_loc=left,setsar=1/1,setdar=(1920/1080)*(1/1),colorspace=format=yuv420p10:range=tv:primaries=bt709:trc=bt709:space=bt709:fast=0[main];[1:v]settb=AVTB,setpts=PTS-STARTPTS,format=pix_fmts=yuv420p,fps=24000/1001,scale=1920:1080:flags=lanczos:param0=3:out_range=limited:out_color_matrix=bt709:out_chroma_loc=left,setsar=1.000,setdar=1.778,colorspace=format=yuv420p:range=tv:primaries=bt709:trc=bt709:space=bt709:fast=0[ref];[main][ref]psnr=eof_action=endall:stats_file='D\\:/Convert/FFMetrics/logs/psnr_logfile-6.txt'" -f null -
Input #0, matroska,webm, from 'F:\Convert\files\[DC] Make Heroine ga Oosugiru - 07_Telegram_HEVC(103).mkv':
  Metadata:
    COMPATIBLE_BRANDS: isomiso2avc1mp41
    MAJOR_BRAND     : isom
    MINOR_VERSION   : 512
    ENCODER         : Lavf61.7.100
  Duration: 00:24:06.79, start: -0.021000, bitrate: 1030 kb/s
  Stream #0:0: Video: hevc (Main 10), yuv420p10le(tv, bt709, progressive), 1920x1080 [SAR 1:1 DAR 16:9], 23.98 fps, 23.98 tbr, 1k tbn (default)
      Metadata:
        HANDLER_NAME    : VideoHandler
        VENDOR_ID       : [0][0][0][0]
        ENCODER         : Lavc61.19.100 libx265
        BPS             : 833367
        DURATION        : 00:24:06.569708333
        NUMBER_OF_FRAMES: 34683
        NUMBER_OF_BYTES : 150690460
        _STATISTICS_WRITING_APP: mkvpropedit v94.0 ('Initiate') 64-bit
        _STATISTICS_WRITING_DATE_UTC: 2026-01-12 11:52:53
        _STATISTICS_TAGS: BPS DURATION NUMBER_OF_FRAMES NUMBER_OF_BYTES
  Stream #0:1: Audio: aac (LC), 48000 Hz, stereo, fltp (default)
      Metadata:
        HANDLER_NAME    : SoundHandler
        VENDOR_ID       : [0][0][0][0]
        ENCODER         : Lavc61.19.100 aac
        BPS             : 193194
        DURATION        : 00:24:06.784000000
        NUMBER_OF_FRAMES: 67819
        NUMBER_OF_BYTES : 34938755
        _STATISTICS_WRITING_APP: mkvpropedit v94.0 ('Initiate') 64-bit
        _STATISTICS_WRITING_DATE_UTC: 2026-01-12 11:52:53
        _STATISTICS_TAGS: BPS DURATION NUMBER_OF_FRAMES NUMBER_OF_BYTES
Input #1, mov,mp4,m4a,3gp,3g2,mj2, from 'F:\Convert\files\[DC] Make Heroine ga Oosugiru - 07_Telegram.mp4':
  Metadata:
    major_brand     : isom
    minor_version   : 512
    compatible_brands: isomiso2avc1mp41
    encoder         : Lavf60.16.100
  Duration: 00:24:06.74, start: 0.000000, bitrate: 3764 kb/s
  Stream #1:0[0x1](und): Video: h264 (High) (avc1 / 0x31637661), yuv420p(tv, bt709, progressive), 1920x1080 [SAR 1:1 DAR 16:9], 3616 kb/s, 23.98 fps, 23.98 tbr, 24k tbn (default)
      Metadata:
        handler_name    : VideoHandler
        vendor_id       : [0][0][0][0]
        encoder         : Lavc60.31.102 h264_qsv
  Stream #1:1[0x2](und): Audio: aac (HE-AACv2) (mp4a / 0x6134706D), 48000 Hz, stereo, fltp, 144 kb/s (default)
      Metadata:
        handler_name    : SoundHandler
        vendor_id       : [0][0][0][0]
Stream mapping:
  Stream #0:0 (hevc) -> settb:default
  Stream #1:0 (h264) -> settb:default
  psnr:default -> Stream #0:0 (wrapped_avframe)
  Stream #0:1 -> #0:1 (aac (native) -> pcm_s16le (native))
Output #0, null, to 'pipe:':
  Metadata:
    COMPATIBLE_BRANDS: isomiso2avc1mp41
    MAJOR_BRAND     : isom
    MINOR_VERSION   : 512
    encoder         : Lavf61.7.100
  Stream #0:0: Video: wrapped_avframe, yuv420p10le(tv, bt709, progressive), 1920x1080 [SAR 1:1 DAR 16:9], q=2-31, 200 kb/s, 23.98 fps, 23.98 tbn
      Metadata:
        encoder         : Lavc61.19.100 wrapped_avframe
  Stream #0:1: Audio: pcm_s16le, 48000 Hz, stereo, s16, 1536 kb/s (default)
      Metadata:
        HANDLER_NAME    : SoundHandler
        VENDOR_ID       : [0][0][0][0]
        _STATISTICS_TAGS: BPS DURATION NUMBER_OF_FRAMES NUMBER_OF_BYTES
        BPS             : 193194
        DURATION        : 00:24:06.784000000
        NUMBER_OF_FRAMES: 67819
        NUMBER_OF_BYTES : 34938755
        _STATISTICS_WRITING_APP: mkvpropedit v94.0 ('Initiate') 64-bit
        _STATISTICS_WRITING_DATE_UTC: 2026-01-12 11:52:53
        encoder         : Lavc61.19.100 pcm_s16le
frame=  138 fps=0.0 q=-0.0 size=N/A time=00:00:05.75 bitrate=N/A speed=11.1x    frame=  332 fps=323 q=-0.0 size=N/A time=00:00:13.84 bitrate=N/A speed=13.5x    frame=  531 fps=342 q=-0.0 size=N/A time=00:00:22.14 bitrate=N/A speed=14.3x    frame=  735 fps=356 q=-0.0 size=N/A time=00:00:30.65 bitrate=N/A speed=14.9x    frame=  920 fps=355 q=-0.0 size=N/A time=00:00:38.37 bitrate=N/A speed=14.8x    frame= 1069 fps=346 q=-0.0 size=N/A time=00:00:44.58 bitrate=N/A speed=14.4x    frame= 1230 fps=340 q=-0.0 size=N/A time=00:00:51.30 bitrate=N/A speed=14.2x    frame= 1392 fps=337 q=-0.0 size=N/A time=00:00:58.05 bitrate=N/A speed=14.1x    frame= 1541 fps=331 q=-0.0 size=N/A time=00:01:04.27 bitrate=N/A speed=13.8x    frame= 1687 fps=327 q=-0.0 size=N/A time=00:01:10.36 bitrate=N/A speed=13.6x    frame= 1855 fps=327 q=-0.0 size=N/A time=00:01:17.36 bitrate=N/A speed=13.6x    frame= 2029 fps=328 q=-0.0 size=N/A time=00:01:24.62 bitrate=N/A speed=13.7x    frame= 2134 fps=318 q=-0.0 size=N/A time=00:01:29.00 bitrate=N/A speed=13.3x    frame= 2288 fps=317 q=-0.0 size=N/A time=00:01:35.42 bitrate=N/A speed=13.2x    frame= 2430 fps=314 q=-0.0 size=N/A time=00:01:41.35 bitrate=N/A speed=13.1x    frame= 2559 fps=310 q=-0.0 size=N/A time=00:01:46.73 bitrate=N/A speed=12.9x    frame= 2725 fps=311 q=-0.0 size=N/A time=00:01:53.65 bitrate=N/A speed=  13x    frame= 2899 fps=312 q=-0.0 size=N/A time=00:02:00.91 bitrate=N/A speed=  13x    frame= 3093 fps=315 q=-0.0 size=N/A time=00:02:09.00 bitrate=N/A speed=13.2x    frame= 3289 fps=319 q=-0.0 size=N/A time=00:02:17.17 bitrate=N/A speed=13.3x    frame= 3492 fps=323 q=-0.0 size=N/A time=00:02:25.64 bitrate=N/A speed=13.5x    frame= 3696 fps=326 q=-0.0 size=N/A time=00:02:34.15 bitrate=N/A speed=13.6x    frame= 3889 fps=328 q=-0.0 size=N/A time=00:02:42.20 bitrate=N/A speed=13.7x    frame= 4080 fps=330 q=-0.0 size=N/A time=00:02:50.17 bitrate=N/A speed=13.7x    frame= 4278 fps=332 q=-0.0 size=N/A time=00:02:58.42 bitrate=N/A speed=13.8x    frame= 4475 fps=334 q=-0.0 size=N/A time=00:03:06.64 bitrate=N/A speed=13.9x    frame= 4665 fps=335 q=-0.0 size=N/A time=00:03:14.56 bitrate=N/A speed=  14x    frame= 4858 fps=336 q=-0.0 size=N/A time=00:03:22.61 bitrate=N/A speed=  14x    frame= 5059 fps=338 q=-0.0 size=N/A time=00:03:31.00 bitrate=N/A speed=14.1x    frame= 5258 fps=340 q=-0.0 size=N/A time=00:03:39.30 bitrate=N/A speed=14.2x    frame= 5461 fps=341 q=-0.0 size=N/A time=00:03:47.76 bitrate=N/A speed=14.2x    frame= 5659 fps=343 q=-0.0 size=N/A time=00:03:56.02 bitrate=N/A speed=14.3x    frame= 5857 fps=344 q=-0.0 size=N/A time=00:04:04.28 bitrate=N/A speed=14.3x    frame= 6056 fps=345 q=-0.0 size=N/A time=00:04:12.58 bitrate=N/A speed=14.4x    frame= 6249 fps=346 q=-0.0 size=N/A time=00:04:20.63 bitrate=N/A speed=14.4x    frame= 6441 fps=347 q=-0.0 size=N/A time=00:04:28.64 bitrate=N/A speed=14.5x    frame= 6651 fps=348 q=-0.0 size=N/A time=00:04:37.40 bitrate=N/A speed=14.5x    frame= 6853 fps=349 q=-0.0 size=N/A time=00:04:45.82 bitrate=N/A speed=14.6x    frame= 7044 fps=350 q=-0.0 size=N/A time=00:04:53.79 bitrate=N/A speed=14.6x    frame= 7234 fps=351 q=-0.0 size=N/A time=00:05:01.71 bitrate=N/A speed=14.6x    frame= 7443 fps=352 q=-0.0 size=N/A time=00:05:10.43 bitrate=N/A speed=14.7x    frame= 7627 fps=352 q=-0.0 size=N/A time=00:05:18.10 bitrate=N/A speed=14.7x    frame= 7809 fps=352 q=-0.0 size=N/A time=00:05:25.70 bitrate=N/A speed=14.7x    frame= 8000 fps=352 q=-0.0 size=N/A time=00:05:33.66 bitrate=N/A speed=14.7x    frame= 8192 fps=353 q=-0.0 size=N/A time=00:05:41.67 bitrate=N/A speed=14.7x    frame= 8375 fps=353 q=-0.0 size=N/A time=00:05:49.30 bitrate=N/A speed=14.7x    frame= 8569 fps=353 q=-0.0 size=N/A time=00:05:57.39 bitrate=N/A speed=14.7x    frame= 8765 fps=354 q=-0.0 size=N/A time=00:06:05.57 bitrate=N/A speed=14.8x    frame= 8944 fps=354 q=-0.0 size=N/A time=00:06:13.03 bitrate=N/A speed=14.8x    frame= 9110 fps=353 q=-0.0 size=N/A time=00:06:19.96 bitrate=N/A speed=14.7x    frame= 9272 fps=352 q=-0.0 size=N/A time=00:06:26.71 bitrate=N/A speed=14.7x    frame= 9434 fps=351 q=-0.0 size=N/A time=00:06:33.47 bitrate=N/A speed=14.7x    frame= 9605 fps=351 q=-0.0 size=N/A time=00:06:40.60 bitrate=N/A speed=14.6x    frame= 9771 fps=351 q=-0.0 size=N/A time=00:06:47.53 bitrate=N/A speed=14.6x    frame= 9954 fps=350 q=-0.0 size=N/A time=00:06:55.16 bitrate=N/A speed=14.6x    frame=10128 fps=350 q=-0.0 size=N/A time=00:07:02.42 bitrate=N/A speed=14.6x    frame=10304 fps=350 q=-0.0 size=N/A time=00:07:09.76 bitrate=N/A speed=14.6x    frame=10480 fps=350 q=-0.0 size=N/A time=00:07:17.10 bitrate=N/A speed=14.6x    frame=10652 fps=350 q=-0.0 size=N/A time=00:07:24.27 bitrate=N/A speed=14.6x    frame=10813 fps=349 q=-0.0 size=N/A time=00:07:30.99 bitrate=N/A speed=14.6x    frame=10991 fps=349 q=-0.0 size=N/A time=00:07:38.41 bitrate=N/A speed=14.6x    frame=11178 fps=349 q=-0.0 size=N/A time=00:07:46.21 bitrate=N/A speed=14.6x    frame=11364 fps=349 q=-0.0 size=N/A time=00:07:53.97 bitrate=N/A speed=14.6x    frame=11545 fps=349 q=-0.0 size=N/A time=00:08:01.52 bitrate=N/A speed=14.6x    frame=11727 fps=350 q=-0.0 size=N/A time=00:08:09.11 bitrate=N/A speed=14.6x    frame=11915 fps=350 q=-0.0 size=N/A time=00:08:16.95 bitrate=N/A speed=14.6x    frame=12090 fps=350 q=-0.0 size=N/A time=00:08:24.25 bitrate=N/A speed=14.6x    frame=12264 fps=349 q=-0.0 size=N/A time=00:08:31.51 bitrate=N/A speed=14.6x    frame=12433 fps=349 q=-0.0 size=N/A time=00:08:38.55 bitrate=N/A speed=14.6x    frame=12613 fps=349 q=-0.0 size=N/A time=00:08:46.06 bitrate=N/A speed=14.6x    frame=12771 fps=348 q=-0.0 size=N/A time=00:08:52.65 bitrate=N/A speed=14.5x    frame=12943 fps=348 q=-0.0 size=N/A time=00:08:59.83 bitrate=N/A speed=14.5x    frame=13105 fps=348 q=-0.0 size=N/A time=00:09:06.58 bitrate=N/A speed=14.5x    frame=13280 fps=348 q=-0.0 size=N/A time=00:09:13.88 bitrate=N/A speed=14.5x    frame=13443 fps=347 q=-0.0 size=N/A time=00:09:20.68 bitrate=N/A speed=14.5x    frame=13626 fps=347 q=-0.0 size=N/A time=00:09:28.31 bitrate=N/A speed=14.5x    frame=13811 fps=347 q=-0.0 size=N/A time=00:09:36.03 bitrate=N/A speed=14.5x    frame=13988 fps=347 q=-0.0 size=N/A time=00:09:43.41 bitrate=N/A speed=14.5x    frame=14152 fps=347 q=-0.0 size=N/A time=00:09:50.25 bitrate=N/A speed=14.5x    frame=14351 fps=348 q=-0.0 size=N/A time=00:09:58.55 bitrate=N/A speed=14.5x    frame=14538 fps=348 q=-0.0 size=N/A time=00:10:06.35 bitrate=N/A speed=14.5x    frame=14727 fps=348 q=-0.0 size=N/A time=00:10:14.23 bitrate=N/A speed=14.5x    frame=14917 fps=348 q=-0.0 size=N/A time=00:10:22.16 bitrate=N/A speed=14.5x    frame=15105 fps=348 q=-0.0 size=N/A time=00:10:30.00 bitrate=N/A speed=14.5x    frame=15273 fps=348 q=-0.0 size=N/A time=00:10:37.01 bitrate=N/A speed=14.5x    frame=15447 fps=348 q=-0.0 size=N/A time=00:10:44.26 bitrate=N/A speed=14.5x    frame=15611 fps=348 q=-0.0 size=N/A time=00:10:51.10 bitrate=N/A speed=14.5x    frame=15781 fps=348 q=-0.0 size=N/A time=00:10:58.19 bitrate=N/A speed=14.5x    frame=15948 fps=347 q=-0.0 size=N/A time=00:11:05.16 bitrate=N/A speed=14.5x    frame=16108 fps=347 q=-0.0 size=N/A time=00:11:11.83 bitrate=N/A speed=14.5x    frame=16287 fps=347 q=-0.0 size=N/A time=00:11:19.30 bitrate=N/A speed=14.5x    frame=16469 fps=347 q=-0.0 size=N/A time=00:11:26.89 bitrate=N/A speed=14.5x    frame=16660 fps=347 q=-0.0 size=N/A time=00:11:34.86 bitrate=N/A speed=14.5x    frame=16857 fps=348 q=-0.0 size=N/A time=00:11:43.07 bitrate=N/A speed=14.5x    frame=17059 fps=348 q=-0.0 size=N/A time=00:11:51.50 bitrate=N/A speed=14.5x    frame=17252 fps=348 q=-0.0 size=N/A time=00:11:59.55 bitrate=N/A speed=14.5x    frame=17462 fps=349 q=-0.0 size=N/A time=00:12:08.31 bitrate=N/A speed=14.6x    frame=17648 fps=349 q=-0.0 size=N/A time=00:12:16.06 bitrate=N/A speed=14.6x    frame=17838 fps=349 q=-0.0 size=N/A time=00:12:23.99 bitrate=N/A speed=14.6x    frame=18045 fps=350 q=-0.0 size=N/A time=00:12:32.62 bitrate=N/A speed=14.6x    frame=18228 fps=350 q=-0.0 size=N/A time=00:12:40.25 bitrate=N/A speed=14.6x    frame=18404 fps=350 q=-0.0 size=N/A time=00:12:47.60 bitrate=N/A speed=14.6x    frame=18590 fps=350 q=-0.0 size=N/A time=00:12:55.35 bitrate=N/A speed=14.6x    frame=18792 fps=350 q=-0.0 size=N/A time=00:13:03.78 bitrate=N/A speed=14.6x    frame=18994 fps=350 q=-0.0 size=N/A time=00:13:12.20 bitrate=N/A speed=14.6x    frame=19198 fps=351 q=-0.0 size=N/A time=00:13:20.71 bitrate=N/A speed=14.6x    frame=19400 fps=351 q=-0.0 size=N/A time=00:13:29.14 bitrate=N/A speed=14.7x    frame=19604 fps=352 q=-0.0 size=N/A time=00:13:37.65 bitrate=N/A speed=14.7x    frame=19809 fps=352 q=-0.0 size=N/A time=00:13:46.20 bitrate=N/A speed=14.7x    frame=20008 fps=352 q=-0.0 size=N/A time=00:13:54.50 bitrate=N/A speed=14.7x    frame=20206 fps=353 q=-0.0 size=N/A time=00:14:02.75 bitrate=N/A speed=14.7x    frame=20402 fps=353 q=-0.0 size=N/A time=00:14:10.93 bitrate=N/A speed=14.7x    frame=20586 fps=353 q=-0.0 size=N/A time=00:14:18.60 bitrate=N/A speed=14.7x    frame=20773 fps=353 q=-0.0 size=N/A time=00:14:26.40 bitrate=N/A speed=14.7x    frame=20972 fps=353 q=-0.0 size=N/A time=00:14:34.70 bitrate=N/A speed=14.7x    frame=21182 fps=354 q=-0.0 size=N/A time=00:14:43.46 bitrate=N/A speed=14.8x    frame=21377 fps=354 q=-0.0 size=N/A time=00:14:51.59 bitrate=N/A speed=14.8x    frame=21567 fps=354 q=-0.0 size=N/A time=00:14:59.52 bitrate=N/A speed=14.8x    frame=21768 fps=354 q=-0.0 size=N/A time=00:15:07.90 bitrate=N/A speed=14.8x    frame=21964 fps=355 q=-0.0 size=N/A time=00:15:16.08 bitrate=N/A speed=14.8x    frame=22164 fps=355 q=-0.0 size=N/A time=00:15:24.42 bitrate=N/A speed=14.8x    frame=22364 fps=355 q=-0.0 size=N/A time=00:15:32.76 bitrate=N/A speed=14.8x    frame=22573 fps=356 q=-0.0 size=N/A time=00:15:41.48 bitrate=N/A speed=14.8x    frame=22769 fps=356 q=-0.0 size=N/A time=00:15:49.65 bitrate=N/A speed=14.8x    frame=22967 fps=356 q=-0.0 size=N/A time=00:15:57.91 bitrate=N/A speed=14.9x    frame=23166 fps=356 q=-0.0 size=N/A time=00:16:06.21 bitrate=N/A speed=14.9x    frame=23368 fps=357 q=-0.0 size=N/A time=00:16:14.64 bitrate=N/A speed=14.9x    frame=23571 fps=357 q=-0.0 size=N/A time=00:16:23.10 bitrate=N/A speed=14.9x    frame=23773 fps=357 q=-0.0 size=N/A time=00:16:31.53 bitrate=N/A speed=14.9x    frame=23972 fps=357 q=-0.0 size=N/A time=00:16:39.83 bitrate=N/A speed=14.9x    frame=24171 fps=358 q=-0.0 size=N/A time=00:16:48.13 bitrate=N/A speed=14.9x    frame=24370 fps=358 q=-0.0 size=N/A time=00:16:56.43 bitrate=N/A speed=14.9x    frame=24577 fps=358 q=-0.0 size=N/A time=00:17:05.06 bitrate=N/A speed=14.9x    frame=24771 fps=358 q=-0.0 size=N/A time=00:17:13.15 bitrate=N/A speed=14.9x    frame=24970 fps=358 q=-0.0 size=N/A time=00:17:21.45 bitrate=N/A speed=  15x    frame=25172 fps=359 q=-0.0 size=N/A time=00:17:29.88 bitrate=N/A speed=  15x    frame=25377 fps=359 q=-0.0 size=N/A time=00:17:38.43 bitrate=N/A speed=  15x    frame=25569 fps=359 q=-0.0 size=N/A time=00:17:46.44 bitrate=N/A speed=  15x    frame=25762 fps=359 q=-0.0 size=N/A time=00:17:54.49 bitrate=N/A speed=  15x    frame=25967 fps=359 q=-0.0 size=N/A time=00:18:03.04 bitrate=N/A speed=  15x    frame=26175 fps=360 q=-0.0 size=N/A time=00:18:11.71 bitrate=N/A speed=  15x    frame=26372 fps=360 q=-0.0 size=N/A time=00:18:19.93 bitrate=N/A speed=  15x    frame=26572 fps=360 q=-0.0 size=N/A time=00:18:28.27 bitrate=N/A speed=  15x    frame=26782 fps=360 q=-0.0 size=N/A time=00:18:37.03 bitrate=N/A speed=  15x    frame=26971 fps=360 q=-0.0 size=N/A time=00:18:44.91 bitrate=N/A speed=  15x    frame=27157 fps=361 q=-0.0 size=N/A time=00:18:52.67 bitrate=N/A speed=  15x    frame=27346 fps=361 q=-0.0 size=N/A time=00:19:00.55 bitrate=N/A speed=  15x    frame=27549 fps=361 q=-0.0 size=N/A time=00:19:09.02 bitrate=N/A speed=  15x    frame=27741 fps=361 q=-0.0 size=N/A time=00:19:17.03 bitrate=N/A speed=15.1x    frame=27937 fps=361 q=-0.0 size=N/A time=00:19:25.20 bitrate=N/A speed=15.1x    frame=28144 fps=361 q=-0.0 size=N/A time=00:19:33.83 bitrate=N/A speed=15.1x    frame=28343 fps=361 q=-0.0 size=N/A time=00:19:42.13 bitrate=N/A speed=15.1x    frame=28537 fps=362 q=-0.0 size=N/A time=00:19:50.23 bitrate=N/A speed=15.1x    frame=28723 fps=362 q=-0.0 size=N/A time=00:19:57.98 bitrate=N/A speed=15.1x    frame=28906 fps=361 q=-0.0 size=N/A time=00:20:05.62 bitrate=N/A speed=15.1x    frame=29084 fps=361 q=-0.0 size=N/A time=00:20:13.04 bitrate=N/A speed=15.1x    frame=29271 fps=361 q=-0.0 size=N/A time=00:20:20.84 bitrate=N/A speed=15.1x    frame=29447 fps=361 q=-0.0 size=N/A time=00:20:28.18 bitrate=N/A speed=15.1x    frame=29631 fps=361 q=-0.0 size=N/A time=00:20:35.85 bitrate=N/A speed=15.1x    frame=29812 fps=361 q=-0.0 size=N/A time=00:20:43.40 bitrate=N/A speed=15.1x    frame=29983 fps=361 q=-0.0 size=N/A time=00:20:50.54 bitrate=N/A speed=15.1x    frame=30170 fps=361 q=-0.0 size=N/A time=00:20:58.34 bitrate=N/A speed=15.1x    frame=30358 fps=361 q=-0.0 size=N/A time=00:21:06.18 bitrate=N/A speed=15.1x    frame=30562 fps=361 q=-0.0 size=N/A time=00:21:14.69 bitrate=N/A speed=15.1x    frame=30750 fps=361 q=-0.0 size=N/A time=00:21:22.53 bitrate=N/A speed=15.1x    frame=30955 fps=361 q=-0.0 size=N/A time=00:21:31.08 bitrate=N/A speed=15.1x    frame=31151 fps=362 q=-0.0 size=N/A time=00:21:39.25 bitrate=N/A speed=15.1x    frame=31344 fps=362 q=-0.0 size=N/A time=00:21:47.30 bitrate=N/A speed=15.1x    frame=31535 fps=362 q=-0.0 size=N/A time=00:21:55.27 bitrate=N/A speed=15.1x    frame=31729 fps=362 q=-0.0 size=N/A time=00:22:03.36 bitrate=N/A speed=15.1x    frame=31915 fps=362 q=-0.0 size=N/A time=00:22:11.12 bitrate=N/A speed=15.1x    frame=32103 fps=362 q=-0.0 size=N/A time=00:22:18.96 bitrate=N/A speed=15.1x    frame=32307 fps=362 q=-0.0 size=N/A time=00:22:27.47 bitrate=N/A speed=15.1x    frame=32499 fps=362 q=-0.0 size=N/A time=00:22:35.47 bitrate=N/A speed=15.1x    frame=32670 fps=362 q=-0.0 size=N/A time=00:22:42.61 bitrate=N/A speed=15.1x    frame=32842 fps=362 q=-0.0 size=N/A time=00:22:49.78 bitrate=N/A speed=15.1x    frame=33029 fps=362 q=-0.0 size=N/A time=00:22:57.58 bitrate=N/A speed=15.1x    frame=33207 fps=362 q=-0.0 size=N/A time=00:23:05.00 bitrate=N/A speed=15.1x    frame=33389 fps=362 q=-0.0 size=N/A time=00:23:12.59 bitrate=N/A speed=15.1x    frame=33556 fps=361 q=-0.0 size=N/A time=00:23:19.56 bitrate=N/A speed=15.1x    frame=33708 fps=361 q=-0.0 size=N/A time=00:23:25.90 bitrate=N/A speed=15.1x    frame=33836 fps=360 q=-0.0 size=N/A time=00:23:31.24 bitrate=N/A speed=  15x    frame=33978 fps=360 q=-0.0 size=N/A time=00:23:37.16 bitrate=N/A speed=  15x    frame=34151 fps=360 q=-0.0 size=N/A time=00:23:44.38 bitrate=N/A speed=  15x    frame=34308 fps=359 q=-0.0 size=N/A time=00:23:50.92 bitrate=N/A speed=  15x    frame=34446 fps=359 q=-0.0 size=N/A time=00:23:56.68 bitrate=N/A speed=  15x    frame=34635 fps=359 q=-0.0 size=N/A time=00:24:04.56 bitrate=N/A speed=  15x    [Parsed_psnr_16 @ 00000183912444c0] PSNR y:49.171944 u:50.541736 v:50.609615 average:49.591347 min:37.979897 max:inf
[out#0/null @ 0000018384048a00] video:14903KiB audio:271276KiB subtitle:0KiB other streams:0KiB global headers:0KiB muxing overhead: unknown
frame=34683 fps=359 q=-0.0 Lsize=N/A time=00:24:06.57 bitrate=N/A speed=  15x    
